<svg id="Camada_1" fill="#fff" data-name="Camada 1" deffil="#fffff" xmlns="http://www.w3.org/2000/svg" viewBox="0 0 500 500"><title>Logotipo</title><path d="M281.42,281.43v62.86H71.48a10.07,10.07,0,0,1-10.06-10.06V33.77A3.77,3.77,0,0,1,65.19,30h55.32a3.77,3.77,0,0,1,3.77,3.77V277.66a3.77,3.77,0,0,0,3.77,3.77Z"/><path d="M438.58,291.49V459.94A10.06,10.06,0,0,1,428.52,470H197.21a10.05,10.05,0,0,1-10.06-10.06V379.49a3.77,3.77,0,0,1,3.77-3.78h55.31a3.78,3.78,0,0,1,3.78,3.78v23.88a3.77,3.77,0,0,0,3.77,3.77H372a3.77,3.77,0,0,0,3.77-3.77V348.06a3.77,3.77,0,0,0-3.77-3.77h-59.1V281.43H428.52A10.06,10.06,0,0,1,438.58,291.49Z"/><path d="M438.57,165.77v80.46a3.77,3.77,0,0,1-3.78,3.77H379.48a3.77,3.77,0,0,1-3.77-3.77V222.34a3.77,3.77,0,0,0-3.77-3.77H253.77a3.77,3.77,0,0,0-3.78,3.77V250H187.14V165.77a10.06,10.06,0,0,1,10.05-10.06H428.51A10.07,10.07,0,0,1,438.57,165.77Z"/></svg>