<svg id="Camada_1" data-name="Camada 1" xmlns="http://www.w3.org/2000/svg" viewBox="0 0 1575 500"><title>Logotipo</title><path d="M247.39,270.56v41.12H110.05a6.58,6.58,0,0,1-6.57-6.58V108.56a2.46,2.46,0,0,1,2.46-2.47h36.19a2.46,2.46,0,0,1,2.46,2.47V268.09a2.48,2.48,0,0,0,2.47,2.47Z"/><path d="M350.19,277.14V387.33a6.58,6.58,0,0,1-6.58,6.58H192.3a6.57,6.57,0,0,1-6.58-6.58V334.7a2.47,2.47,0,0,1,2.47-2.47h36.18a2.48,2.48,0,0,1,2.47,2.47v15.63a2.46,2.46,0,0,0,2.46,2.46h77.3a2.46,2.46,0,0,0,2.47-2.46V314.14a2.46,2.46,0,0,0-2.47-2.46H268V270.56h75.66A6.58,6.58,0,0,1,350.19,277.14Z"/><path d="M350.18,194.9v52.63a2.46,2.46,0,0,1-2.47,2.47H311.53a2.47,2.47,0,0,1-2.47-2.47V231.91a2.47,2.47,0,0,0-2.46-2.47H229.29a2.47,2.47,0,0,0-2.46,2.47V250H185.71V194.9a6.59,6.59,0,0,1,6.58-6.58H343.6A6.59,6.59,0,0,1,350.18,194.9Z"/><path d="M460.45,311.14V188.86H476v108.5h68.2v13.78Z"/><path d="M561,311.14V188.86h15.5V311.14Z"/><path d="M711.55,311.14V217.8l-40.3,71.81h-9.48L621.3,217.8v93.34H605.8V188.86h16.36l44.26,79.4,44.44-79.4h16.19V311.14Z"/><path d="M756.32,311.14V188.86h15.5V311.14Z"/><path d="M889.28,202.64h-42.2v108.5h-15.5V202.64H789.39V188.86h99.89Z"/><path d="M1017.06,214.52a25.88,25.88,0,0,0-5.51-4.65,49.81,49.81,0,0,0-7.75-4.05,55.42,55.42,0,0,0-9.38-2.92,49,49,0,0,0-10.6-1.12q-14.12,0-20.84,5.32t-6.71,14.6c0,4.34,1.15,7.78,3.44,10.29s5.83,4.58,10.59,6.19,10.82,3.26,18.17,5a123.25,123.25,0,0,1,22,6.69q9.3,3.94,14.29,10.56t5,17.6a32.39,32.39,0,0,1-3.35,15.19,29.47,29.47,0,0,1-9.39,10.65,41.79,41.79,0,0,1-14.12,6.18,74.38,74.38,0,0,1-17.57,2,83.19,83.19,0,0,1-18.17-2,78.13,78.13,0,0,1-16.79-5.77,71.72,71.72,0,0,1-14.81-9.47L943,281.69a38.76,38.76,0,0,0,7.14,5.77,67.53,67.53,0,0,0,10,5.25,68.48,68.48,0,0,0,12.14,3.88,61.77,61.77,0,0,0,13.44,1.46q13.08,0,20.32-4.71t7.23-13.8q0-6.87-4-11t-12-6.87q-7.93-2.74-19.29-5.49a133.69,133.69,0,0,1-20.84-6.79q-8.45-3.69-12.66-9.7t-4.22-15.63q0-11.69,5.68-19.75a35,35,0,0,1,15.68-12.2A58.75,58.75,0,0,1,984.17,188a66.07,66.07,0,0,1,15.41,1.72,62.43,62.43,0,0,1,13.35,4.83,58.25,58.25,0,0,1,11.36,7.4Z"/><path d="M1050.13,311.14V188.86h51a32.66,32.66,0,0,1,14.81,3.36,39,39,0,0,1,11.71,9,41.84,41.84,0,0,1,7.75,12.57,38.48,38.48,0,0,1,2.75,14.21,42.4,42.4,0,0,1-4.47,19,38.1,38.1,0,0,1-12.58,14.64,32.46,32.46,0,0,1-18.94,5.59h-36.51v43.92Zm15.5-57.69h35.65a18.39,18.39,0,0,0,11.11-3.45,23,23,0,0,0,7.4-9.3,30.33,30.33,0,0,0,2.67-12.74,27,27,0,0,0-3.1-13,24.43,24.43,0,0,0-8.09-9,19.73,19.73,0,0,0-11-3.27h-34.61Z"/><path d="M1185.84,188.86h13.09l49.94,122.28h-16.53l-13.72-35.82H1166l-13.78,35.82h-16.53Zm28.17,74.4-21.63-56.49-21.72,56.49Z"/><path d="M1252.83,249a64.26,64.26,0,0,1,3.88-22,63.49,63.49,0,0,1,11.37-19.64,55.15,55.15,0,0,1,18.34-14.12A55.81,55.81,0,0,1,1311,188q16.37,0,28.08,7.49a47,47,0,0,1,17.39,19.21l-12.23,7.92A33.46,33.46,0,0,0,1323,203.85a44.55,44.55,0,0,0-12.66-1.9,37.92,37.92,0,0,0-18,4.14,40.09,40.09,0,0,0-13.18,11,48.45,48.45,0,0,0-8,15.41,56.76,56.76,0,0,0-2.68,17.14,53,53,0,0,0,3.19,18.25,50.19,50.19,0,0,0,8.87,15.5A43.23,43.23,0,0,0,1294,294.09a36.56,36.56,0,0,0,16.88,4,41.07,41.07,0,0,0,13.09-2.24,39.85,39.85,0,0,0,12.57-7,33.23,33.23,0,0,0,9.3-12.32l12.92,7.07A38.67,38.67,0,0,1,1347,299.08a56.89,56.89,0,0,1-17.66,9.65,60,60,0,0,1-19.2,3.27,49.58,49.58,0,0,1-23.07-5.42,59.06,59.06,0,0,1-18.17-14.47,68,68,0,0,1-11.89-20.32A64.77,64.77,0,0,1,1252.83,249Z"/><path d="M1461.22,297.36v13.78h-83V188.86h81.46v13.78h-66v39.61h57.35v12.92h-57.35v42.19Z"/></svg>