<svg id="Camada_1" data-name="Camada 1" xmlns="http://www.w3.org/2000/svg" viewBox="0 0 500 500"><title>Logotipo</title><path d="M270.55,223.11v41.12H133.22a6.59,6.59,0,0,1-6.58-6.58V61.11a2.47,2.47,0,0,1,2.47-2.47h36.18a2.46,2.46,0,0,1,2.47,2.47V220.64a2.48,2.48,0,0,0,2.47,2.47Z"/><path d="M373.36,229.69V339.88a6.59,6.59,0,0,1-6.58,6.58H215.47a6.58,6.58,0,0,1-6.58-6.58V287.25a2.47,2.47,0,0,1,2.46-2.47h36.19a2.47,2.47,0,0,1,2.46,2.47v15.63a2.47,2.47,0,0,0,2.47,2.46h77.3a2.47,2.47,0,0,0,2.47-2.46V266.69a2.47,2.47,0,0,0-2.47-2.46H291.11V223.11h75.67A6.58,6.58,0,0,1,373.36,229.69Z"/><path d="M373.35,147.45v52.63a2.48,2.48,0,0,1-2.47,2.47H334.7a2.48,2.48,0,0,1-2.47-2.47V184.46a2.47,2.47,0,0,0-2.47-2.47h-77.3a2.47,2.47,0,0,0-2.46,2.47v18.09H208.88v-55.1a6.58,6.58,0,0,1,6.58-6.58H366.77A6.59,6.59,0,0,1,373.35,147.45Z"/><path d="M75.67,441.06v-42.6h5.4v37.8h23.76v4.8Z"/><path d="M110.71,441.06v-42.6h5.4v42.6Z"/><path d="M163.15,441.06V408.54l-14,25h-3.3l-14.1-25v32.52h-5.4v-42.6H132l15.42,27.66,15.48-27.66h5.64v42.6Z"/><path d="M178.75,441.06v-42.6h5.4v42.6Z"/><path d="M225.07,403.26h-14.7v37.8H205v-37.8h-14.7v-4.8h34.8Z"/><path d="M269.59,407.4a8.89,8.89,0,0,0-1.92-1.62,17.08,17.08,0,0,0-2.7-1.41,19,19,0,0,0-3.27-1A17.1,17.1,0,0,0,258,403q-4.92,0-7.26,1.86a6.12,6.12,0,0,0-2.34,5.08,5.12,5.12,0,0,0,1.2,3.59,8.62,8.62,0,0,0,3.69,2.15q2.49.84,6.33,1.74a42,42,0,0,1,7.68,2.33,11.87,11.87,0,0,1,5,3.68,9.91,9.91,0,0,1,1.74,6.13,11.28,11.28,0,0,1-1.17,5.29,10.23,10.23,0,0,1-3.27,3.71,14.29,14.29,0,0,1-4.92,2.15,25.71,25.71,0,0,1-6.12.69,29,29,0,0,1-6.33-.69,27.3,27.3,0,0,1-5.85-2,25.1,25.1,0,0,1-5.16-3.3l2.58-4.56a13.41,13.41,0,0,0,2.49,2,23.55,23.55,0,0,0,3.48,1.83A23.81,23.81,0,0,0,254,436a21.37,21.37,0,0,0,4.68.51,12.88,12.88,0,0,0,7.08-1.64,5.39,5.39,0,0,0,2.52-4.81,5.24,5.24,0,0,0-1.41-3.83,10.78,10.78,0,0,0-4.17-2.39q-2.76-1-6.72-1.91a46.22,46.22,0,0,1-7.26-2.37,10.12,10.12,0,0,1-4.41-3.38,9.26,9.26,0,0,1-1.47-5.44,11.62,11.62,0,0,1,2-6.88,12.15,12.15,0,0,1,5.46-4.25,20.39,20.39,0,0,1,7.86-1.44,22.88,22.88,0,0,1,5.37.6,21.75,21.75,0,0,1,4.65,1.68,20.43,20.43,0,0,1,4,2.58Z"/><path d="M281.11,441.06v-42.6h17.76a11.37,11.37,0,0,1,5.16,1.17,13.53,13.53,0,0,1,4.08,3.12,14.57,14.57,0,0,1,2.7,4.38,13.37,13.37,0,0,1,1,4.95,14.75,14.75,0,0,1-1.56,6.63,13.22,13.22,0,0,1-4.38,5.1,11.32,11.32,0,0,1-6.6,1.95H286.51v15.3Zm5.4-20.1h12.42a6.4,6.4,0,0,0,3.87-1.2,8,8,0,0,0,2.58-3.24,10.58,10.58,0,0,0,.93-4.44,9.42,9.42,0,0,0-1.08-4.53,8.47,8.47,0,0,0-2.82-3.15,6.86,6.86,0,0,0-3.84-1.14H286.51Z"/><path d="M328.39,398.46H333l17.4,42.6h-5.76l-4.78-12.48H321.49l-4.8,12.48h-5.76Zm9.81,25.92-7.53-19.68-7.57,19.68Z"/><path d="M351.73,419.4a22.43,22.43,0,0,1,1.35-7.65,22.16,22.16,0,0,1,4-6.84,19.21,19.21,0,0,1,6.39-4.92,19.44,19.44,0,0,1,8.58-1.83,17.76,17.76,0,0,1,9.78,2.61,16.33,16.33,0,0,1,6.06,6.69l-4.26,2.76a11.69,11.69,0,0,0-7.41-6.54,15.62,15.62,0,0,0-4.41-.66,13.24,13.24,0,0,0-6.27,1.44,14,14,0,0,0-4.59,3.84,17,17,0,0,0-2.79,5.37,19.88,19.88,0,0,0-.93,6A18.51,18.51,0,0,0,358.3,426a17.53,17.53,0,0,0,3.09,5.4,15,15,0,0,0,4.68,3.72A12.73,12.73,0,0,0,372,436.5a14.38,14.38,0,0,0,4.56-.78,14,14,0,0,0,4.38-2.43,11.56,11.56,0,0,0,3.24-4.29l4.5,2.46a13.47,13.47,0,0,1-4.08,5.4,19.8,19.8,0,0,1-6.15,3.36,20.9,20.9,0,0,1-6.69,1.14,17.26,17.26,0,0,1-8-1.89,20.63,20.63,0,0,1-6.33-5,23.7,23.7,0,0,1-4.14-7.08A22.54,22.54,0,0,1,351.73,419.4Z"/><path d="M424.33,436.26v4.8H395.41v-42.6h28.38v4.8h-23v13.8h20v4.5h-20v14.7Z"/></svg>